<svg width="30" height="30" viewBox="0 0 30 30" fill="none" xmlns="http://www.w3.org/2000/svg">
<path d="M19.6041 0H10.3951C1.99133 0 -0.000854492 1.99219 -0.000854492 10.3959V19.605C-0.000854492 28.0088 1.99133 30.0009 10.3951 30.0009H19.6041C28.0079 30.0009 30.0001 28.0088 30.0001 19.605V10.3959C30.0001 1.99219 27.9882 0 19.6041 0ZM24.2185 21.4012H22.0407C21.2157 21.4012 20.9616 20.7469 19.4776 19.2431C18.1885 17.9934 17.6176 17.8275 17.2998 17.8275C16.8507 17.8275 16.7232 17.9541 16.7232 18.57V20.5378C16.7232 21.0656 16.5573 21.3825 15.1604 21.3825C12.8504 21.3825 10.2873 19.9856 8.49008 17.3831C5.77977 13.5694 5.03821 10.7128 5.03821 10.1222C5.03821 9.80437 5.16477 9.50719 5.77508 9.50719H7.95758C8.50977 9.50719 8.71977 9.76125 8.93446 10.3519C10.0135 13.4672 11.8107 16.1962 12.5523 16.1962C12.826 16.1962 12.9526 16.0697 12.9526 15.3713V12.1537C12.8691 10.6697 12.0882 10.5422 12.0882 10.0153C12.0882 9.76125 12.2982 9.50719 12.6348 9.50719H16.067C16.531 9.50719 16.7016 9.76125 16.7016 10.3078V14.6484C16.7016 15.1172 16.9116 15.2831 17.0382 15.2831C17.312 15.2831 17.5463 15.1172 18.0535 14.6091C19.621 12.8512 20.7441 10.1409 20.7441 10.1409C20.8904 9.82313 21.1445 9.52594 21.6966 9.52594H23.8791C24.5335 9.52594 24.6798 9.8625 24.5335 10.3313C24.2598 11.6006 21.5888 15.3703 21.5888 15.3703C21.3591 15.7509 21.271 15.9169 21.5888 16.3416C21.8232 16.6594 22.5854 17.3184 23.0926 17.9091C24.0254 18.9684 24.7426 19.8572 24.9338 20.4722C25.1485 21.0825 24.8316 21.4003 24.2157 21.4003L24.2185 21.4012Z" fill="white"/>
</svg>
