<svg width="30" height="22" viewBox="0 0 30 22" fill="none" xmlns="http://www.w3.org/2000/svg">
<path d="M29.375 4.13372C29.2052 3.52776 28.8743 2.97915 28.4175 2.54622C27.9479 2.09998 27.3723 1.78077 26.745 1.61872C24.3975 0.999973 14.9925 0.999973 14.9925 0.999973C11.0717 0.955364 7.15182 1.15157 3.25504 1.58747C2.62778 1.76149 2.05324 2.08783 1.58254 2.53747C1.12004 2.98247 0.785039 3.53122 0.610039 4.13247C0.189655 6.39715 -0.0145959 8.69665 3.9057e-05 11C-0.0149609 13.3012 0.188789 15.6 0.610039 17.8675C0.781289 18.4662 1.11504 19.0125 1.57879 19.4537C2.04254 19.895 2.62004 20.2137 3.25504 20.3825C5.63379 21 14.9925 21 14.9925 21C18.9184 21.0446 22.8432 20.8484 26.745 20.4125C27.3723 20.2504 27.9479 19.9312 28.4175 19.485C28.8741 19.0521 29.2046 18.5034 29.3738 17.8975C29.8051 15.6337 30.0149 13.3332 30 11.0287C30.0325 8.71448 29.823 6.40318 29.375 4.13247V4.13372ZM12.0025 15.28V6.72122L19.8275 11.0012L12.0025 15.28Z" fill="white"/>
</svg>
