<svg width="362" height="155" viewBox="0 0 362 155" fill="none" xmlns="http://www.w3.org/2000/svg">
<path d="M272.768 20.7678C273.744 19.7915 273.744 18.2085 272.768 17.2322L256.858 1.32233C255.882 0.34602 254.299 0.34602 253.322 1.32233C252.346 2.29864 252.346 3.88155 253.322 4.85786L267.464 19L253.322 33.1421C252.346 34.1184 252.346 35.7014 253.322 36.6777C254.299 37.654 255.882 37.654 256.858 36.6777L272.768 20.7678ZM0 21.5H271V16.5H0V21.5Z" fill="#787878"/>
<path d="M166.768 80.7678C167.744 79.7915 167.744 78.2085 166.768 77.2322L150.858 61.3223C149.882 60.346 148.299 60.346 147.322 61.3223C146.346 62.2986 146.346 63.8816 147.322 64.8579L161.464 79L147.322 93.1421C146.346 94.1184 146.346 95.7014 147.322 96.6777C148.299 97.654 149.882 97.654 150.858 96.6777L166.768 80.7678ZM0 81.5H165V76.5H0V81.5Z" fill="#787878"/>
<path d="M360.768 138.271C361.745 137.294 361.745 135.711 360.768 134.735L344.859 118.825C343.882 117.849 342.299 117.849 341.323 118.825C340.347 119.801 340.347 121.384 341.323 122.361L355.465 136.503L341.323 150.645C340.347 151.621 340.347 153.204 341.323 154.18C342.299 155.157 343.882 155.157 344.859 154.18L360.768 138.271ZM-0.000732422 139.003H359.001V134.003H-0.000732422V139.003Z" fill="#787878"/>
</svg>
