<svg width="187" height="193" viewBox="0 0 187 193" fill="none" xmlns="http://www.w3.org/2000/svg">
<path d="M112.471 0.6875C113.92 0.687546 115.331 1.14745 116.502 2.00099C117.673 2.85452 118.543 4.05764 118.986 5.43706L126.514 28.829C129.676 30.3757 132.701 32.114 135.589 34.0713L159.624 28.8974C161.041 28.5949 162.518 28.7499 163.841 29.3403C165.165 29.9306 166.266 30.9258 166.988 32.1824L185.959 65.0187C186.683 66.2747 186.99 67.7282 186.835 69.1697C186.68 70.6113 186.071 71.9664 185.097 73.0396L168.603 91.244C168.843 94.7347 168.843 98.2379 168.603 101.729L185.097 119.96C186.071 121.034 186.68 122.389 186.835 123.83C186.99 125.272 186.683 126.725 185.959 127.981L166.988 160.831C166.264 162.085 165.162 163.078 163.839 163.666C162.515 164.253 161.04 164.406 159.624 164.103L135.589 158.929C132.714 160.872 129.676 162.624 126.528 164.171L118.986 187.563C118.543 188.942 117.673 190.145 116.502 190.999C115.331 191.853 113.92 192.312 112.471 192.312H74.5289C73.08 192.312 71.6685 191.853 70.4976 190.999C69.3268 190.145 68.4571 188.942 68.0137 187.563L60.4992 164.185C57.3459 162.643 54.3044 160.882 51.397 158.915L27.3755 164.103C25.9584 164.405 24.4818 164.25 23.1584 163.66C21.835 163.069 20.7332 162.074 20.0116 160.818L1.04074 127.981C0.316324 126.725 0.00948269 125.272 0.164462 123.83C0.319442 122.389 0.928233 121.034 1.90305 119.96L18.3965 101.729C18.1576 98.247 18.1576 94.753 18.3965 91.2714L1.90305 73.0396C0.928233 71.9664 0.319442 70.6113 0.164462 69.1697C0.00948269 67.7282 0.316324 66.2747 1.04074 65.0187L20.0116 32.1687C20.7352 30.9146 21.8379 29.9223 23.1611 29.3345C24.4843 28.7466 25.9598 28.5936 27.3755 28.8974L51.397 34.085C54.2988 32.1277 57.3374 30.362 60.4992 28.8153L68.0274 5.43706C68.4693 4.06208 69.3349 2.86215 70.5003 2.00903C71.6656 1.15591 73.071 0.693326 74.5152 0.6875L112.457 0.6875H112.471ZM107.461 14.375L79.5386 14.375L71.7641 38.5608L66.5217 41.1204C63.9446 42.3815 61.4568 43.8175 59.0757 45.4183L54.2304 48.7032L29.3739 43.3378L15.4126 67.5372L32.4536 86.3986L32.0429 92.2021C31.8463 95.064 31.8463 97.936 32.0429 100.798L32.4536 106.601L15.3852 125.463L29.3602 149.662L54.2167 144.31L59.0621 147.582C61.4431 149.183 63.9309 150.618 66.508 151.88L71.7504 154.439L79.5386 178.625H107.488L115.29 154.426L120.519 151.88C123.093 150.621 125.577 149.185 127.951 147.582L132.783 144.31L157.653 149.662L171.614 125.463L154.56 106.601L154.97 100.798C155.168 97.9315 155.168 95.0549 154.97 92.1884L154.56 86.3849L171.628 67.5372L157.653 43.3378L132.783 48.6759L127.951 45.4183C125.577 43.8143 123.093 42.3781 120.519 41.1204L115.29 38.5745L107.475 14.375H107.461ZM93.4998 55.4375C104.39 55.4375 114.835 59.7637 122.535 67.4644C130.236 75.1651 134.562 85.6096 134.562 96.5C134.562 107.39 130.236 117.835 122.535 125.536C114.835 133.236 104.39 137.562 93.4998 137.562C82.6094 137.562 72.1649 133.236 64.4642 125.536C56.7635 117.835 52.4373 107.39 52.4373 96.5C52.4373 85.6096 56.7635 75.1651 64.4642 67.4644C72.1649 59.7637 82.6094 55.4375 93.4998 55.4375ZM93.4998 69.125C86.2395 69.125 79.2766 72.0091 74.1428 77.143C69.0089 82.2768 66.1248 89.2397 66.1248 96.5C66.1248 103.76 69.0089 110.723 74.1428 115.857C79.2766 120.991 86.2395 123.875 93.4998 123.875C100.76 123.875 107.723 120.991 112.857 115.857C117.991 110.723 120.875 103.76 120.875 96.5C120.875 89.2397 117.991 82.2768 112.857 77.143C107.723 72.0091 100.76 69.125 93.4998 69.125Z" fill="#787878"/>
</svg>
